<svg xmlns="http://www.w3.org/2000/svg" version="1.1" viewBox="0 0 10 7" >
 <path d="m-361.01 99.699a30.257 22.373 0 0 0-30.257 22.373 30.257 22.373 0 0 0 30.257 22.373 30.257 22.373 0 0 0 30.256-22.373 30.257 22.373 0 0 0-30.256-22.373zm0 1.8413a28.638 20.531 0 0 1 28.638 20.531 28.638 20.531 0 0 1-28.638 20.531 28.638 20.531 0 0 1-28.638-20.531 28.638 20.531 0 0 1 28.638-20.531z" fill="#0ff" style="paint-order:stroke fill markers"/>
 <path d="m6.3577 0.63463c0.94424-0.015357 1.7259 0.72999 1.7553 1.6736 0.021601 0.69467-0.37527 1.3346-1.0072 1.6242v0.2102c1.5411 0.22908 2.6395 1.1538 2.6402 2.2229h-6.7206c7.681e-4 -1.069 1.0991-1.9937 2.6402-2.2228v-0.2114c-0.57929-0.26541-0.96546-0.82801-1.0048-1.4638l-0.00312-0.10328c-0.0012-0.9441 0.75587-1.7143 1.7001-1.7297zm-4.4005 0.10318-2.976e-4 3.84e-4c0.0012 5.759e-4 0.0024 0.0012 0.0036 0.00187 0.0024 0.0013 0.0048 0.00264 0.0072 0.00408 0.0024 0.00134 0.0048 0.00264 0.0072 0.00408 0.00235 0.00144 0.00456 0.00288 0.00696 0.00432 0.0023 0.00149 0.00456 0.00288 0.00696 0.00456 0.0023 0.00154 0.00456 0.00312 0.00672 0.0048 0.00226 0.00163 0.00456 0.00336 0.00672 0.00504 0.00221 0.00168 0.00432 0.00336 0.00648 0.00504 0.00216 0.00173 0.00432 0.00336 0.00648 0.00528 0.00211 0.00178 0.00408 0.0036 0.00624 0.00552 0.00206 0.00182 0.00408 0.0036 0.00624 0.00552 0.00202 0.00192 0.00408 0.00384 6e-3 0.00576 0.00197 0.00192 0.00384 0.00384 0.00576 6e-3 0.00192 0.00197 0.00384 0.00408 0.00576 6e-3 0.00187 0.00206 0.0036 0.00408 0.00552 0.00624 0.00182 0.00211 0.0036 0.00432 0.00552 0.00648 0.00173 0.00216 0.00336 0.00432 0.00528 0.00648 0.00173 0.00216 0.00336 0.00432 0.00504 0.00648 0.00163 0.00221 0.00336 0.00456 0.0048 0.00672 0.00158 0.00226 0.00312 0.00456 0.0048 0.00696 0.00154 0.0023 0.00312 0.00456 0.00456 0.00696 0.00149 0.00235 0.00288 0.0048 0.00432 0.0072s0.00288 0.0048 0.00408 0.0072c0.00134 0.0024 0.00264 0.0048 0.00408 0.0072 0.0013 0.0024 0.00264 0.00504 0.00384 0.00744 0.00125 0.0024 0.0024 0.00504 0.0036 0.00744 0.00115 0.00264 0.00226 0.00504 0.00336 0.00768s0.00221 0.00504 0.00312 0.00768c0.00106 0.00264 0.00202 0.00528 0.00288 0.00768 9.6e-4 0.00264 0.00187 0.00528 0.00288 0.00792 9.12e-4 0.00264 0.00182 0.00528 0.00264 0.00792 8.642e-4 0.00336 0.00163 0.00648 0.0024 0.00984 7.682e-4 0.00264 0.00149 0.00528 0.00216 0.00816 7.2e-4 0.00264 0.00134 0.00528 0.00197 0.00816 0.00182 0.00792 0.00336 0.015836 0.00456 0.023755 0.00125 0.00792 0.00211 0.016076 0.00288 0.024067 6.242e-4 0.00816 0.00101 0.016076 0.00106 0.024211 7.68e-5 0.00816-1.248e-4 0.016076-6.242e-4 0.024163-5.28e-4 0.00816-0.00139 0.016076-0.00264 0.024115-0.00115 0.00792-0.00264 0.016076-0.00432 0.023755-0.00173 0.00792-0.00384 0.015596-6e-3 0.023515l-4.8e-5 2.88e-4 -3.84e-4 0.00115-5.04e-5 2.88e-4 -9.6e-5 2.879e-4 -5.04e-5 2.88e-4 -2.88e-4 8.637e-4 -4.8e-5 2.88e-4 -2.88e-4 8.639e-4 -5.04e-5 2.879e-4 -9.61e-5 2.88e-4 -9.6e-5 1.919e-4 -2.88e-4 8.639e-4 -5.04e-5 2.88e-4 -2.88e-4 8.637e-4 -4.8e-5 2.88e-4 -1.92e-4 5.759e-4 -9.6e-5 1.919e-4 -9.6e-5 2.88e-4 -5.04e-5 2.88e-4 -2.881e-4 8.637e-4 -9.6e-5 1.92e-4 -1.92e-4 5.759e-4 -5.04e-5 2.879e-4 -1.92e-4 5.76e-4 -9.6e-5 1.919e-4 -2.88e-4 8.639e-4 -4.8e-5 2.878e-4 -9.6e-5 1.92e-4 -4.801e-4 0.00144-5.04e-5 1.919e-4 -4.8e-4 0.00144-9.6e-5 1.92e-4 -2.88e-4 8.639e-4 -5.04e-5 2.879e-4 -9.6e-5 2.88e-4 -9.6e-5 1.919e-4 -4.801e-4 0.00144-9.6e-5 1.92e-4 -2.88e-4 8.637e-4 -4.8e-5 2.88e-4 -9.6e-5 2.879e-4 -9.6e-5 1.92e-4 -3.84e-4 0.00115-9.62e-5 1.92e-4 -9.6e-5 2.878e-4c-0.00288 0.00744-6e-3 0.014878-0.00936 0.022316-0.00336 0.0072-0.0072 0.014398-0.01104 0.021356-0.00182 0.00312-0.0036 6e-3 -0.00552 0.00912-0.57732 0.079712-1.0691 0.48655-1.2734 1.0534-0.19046 0.5351-0.095192 1.1289 0.25048 1.5614 4.08e-5 0.00149 7.68e-5 0.00288 9.6e-5 0.00432 5.04e-5 0.00288 6.96e-5 0.00552 4.8e-5 0.0084-2.88e-5 0.00288-1.056e-4 0.00552-2.016e-4 0.0084s-2.304e-4 0.00552-3.936e-4 0.0084c-1.536e-4 0.00288-3.65e-4 0.00552-5.762e-4 0.0084-2.208e-4 0.00288-4.608e-4 0.00552-7.68e-4 0.0084s-6.721e-4 0.00552-0.00106 0.0084c-3.744e-4 0.00264-8.16e-4 0.00552-0.00125 0.00816-4.512e-4 0.00264-9.12e-4 0.00552-0.00144 0.00816s-0.00106 0.00552-0.00163 0.00816c-5.76e-4 0.00264-0.00125 0.00552-0.00187 0.00816-6.241e-4 0.00264-0.0013 0.00528-0.00202 0.00816-7.2e-4 0.00264-0.00149 0.00528-0.0023 0.00792-8.161e-4 0.00264-0.00158 0.00528-0.0024 0.00792-8.641e-4 0.00264-0.00173 0.00528-0.00264 0.00792l-4.8e-5 5.04e-5v5.03e-5l-5.04e-5 4.8e-5v9.6e-5h-5.04e-5v9.6e-5h-4.8e-5v9.6e-5h-5.04e-5v9.6e-5l-5.04e-5 5.04e-5v5.04e-5l-4.8e-5 4.8e-5v9.59e-5l-5.04e-5 5.04e-5v5.04e-5l-5.04e-5 4.8e-5v5.04e-5l-4.8e-5 5.04e-5v9.6e-5h-5.04e-5v9.6e-5h-5.04e-5v9.6e-5l-4.8e-5 5.02e-5v4.8e-5l-5.04e-5 5.04e-5v5.04e-5l-5.04e-5 4.8e-5v9.6e-5h-4.8e-5v9.6e-5l-5.04e-5 5.04e-5v9.6e-5h-5.04e-5v9.59e-5h-4.8e-5v9.6e-5h-5.04e-5v9.6e-5l-5.04e-5 5.04e-5v4.8e-5l-4.81e-5 5.04e-5v9.6e-5h-5.04e-5v9.6e-5h-5.04e-5v9.59e-5h-4.8e-5v9.6e-5l-5.04e-5 5.04e-5v9.6e-5h-5.04e-5v9.6e-5l-4.8e-5 5.04e-5v4.8e-5l-5.04e-5 5.04e-5v5.04e-5l-5.04e-5 4.79e-5v9.6e-5h-4.8e-5v9.6e-5h-5.04e-5v9.6e-5l-5.04e-5 5.04e-5v5.04e-5l-4.8e-5 4.8e-5 -5.04e-5 9.6e-5 -5.04e-5 4.8e-5v9.59e-5h-4.8e-5v9.6e-5h-5.04e-5v1.536e-4h-5.04e-5v9.6e-5h-4.8e-5v9.6e-5h-5.04e-5v9.6e-5l-5.04e-5 5.02e-5v5.04e-5l-4.8e-5 4.8e-5v9.6e-5h-5.04e-5v9.6e-5h-5.04e-5v9.6e-5h-4.8e-5v9.6e-5l-5.04e-5 5.04e-5v5.04e-5l-5.04e-5 4.79e-5v9.6e-5l-4.8e-5 5.04e-5v5.04e-5l-5.04e-5 4.8e-5v5.04e-5l-5.05e-5 5.04e-5v9.6e-5h-4.8e-5v9.6e-5h-5.04e-5v9.59e-5l-5.04e-5 4.8e-5v5.04e-5l-4.8e-5 5.04e-5v4.8e-5l-5.04e-5 5.04e-5v9.6e-5h-5.04e-5v9.6e-5l-4.8e-5 5.04e-5v9.6e-5h-5.04e-5v9.59e-5h-5.04e-5v9.6e-5h-4.8e-5v9.6e-5l-5.04e-5 4.8e-5 -5.04e-5 9.6e-5 -4.8e-5 5.04e-5v5.04e-5l-5.04e-5 4.8e-5v9.59e-5h-5.04e-5v9.6e-5h-5.04e-5v9.6e-5l-4.8e-5 5.04e-5v5.04e-5l-5.04e-5 4.8e-5v9.6e-5l-5.04e-5 5.04e-5v5.04e-5l-4.8e-5 4.8e-5v5.02e-5l-5.04e-5 5.04e-5v9.6e-5h-5.04e-5v9.6e-5h-4.8e-5v9.6e-5h-5.04e-5c-0.00101 0.00264-0.00202 0.00504-0.00312 0.00768-0.00106 0.00264-0.00221 0.00528-0.00336 0.00768-0.0011 0.00264-0.0023 0.00504-0.00336 0.00744-0.0012 0.0024-0.0024 0.00504-0.0036 0.00744-0.00125 0.0024-0.0024 0.00504-0.00384 0.00744-0.0013 0.0024-0.00264 0.0048-0.00408 0.0072-0.00139 0.0024-0.00288 0.0048-0.00432 0.0072-0.00144 0.00235-0.00288 0.00456-0.00432 0.00696-0.00149 0.00235-0.00312 0.00456-0.00456 0.00696-0.00158 0.0023-0.00312 0.00456-0.0048 0.00696-0.00163 0.00226-0.00312 0.00456-0.0048 0.00672-0.00168 0.00221-0.00336 0.00432-0.00504 0.00648-0.00173 0.00216-0.0036 0.00432-0.00528 0.00648-0.00178 0.00211-0.0036 0.00432-0.00552 0.00624-0.00182 0.00206-0.0036 0.00408-0.00552 0.00624-0.00192 0.00202-0.00384 0.00408-0.00576 6e-3 -0.00192 0.00197-0.00384 0.00384-6e-3 0.00576-0.00197 0.00192-0.00408 0.00384-6e-3 0.00576-0.00206 0.00187-0.00408 0.0036-0.00624 0.00552-0.00206 0.00182-0.00432 0.0036-0.00624 0.00552-0.00624 0.00504-0.012481 0.01008-0.019201 0.014638-0.00648 0.00456-0.013201 0.00912-0.020161 0.013198-0.00696 0.00408-0.013921 0.00792-0.021122 0.01152-0.0072 0.0036-0.014401 0.00696-0.021841 0.01008s-0.014881 0.00576-0.022562 0.0084c-0.00768 0.0024-0.015361 0.00456-0.023282 0.00648-0.00768 0.00187-0.015601 0.0036-0.023522 0.0048-0.00792 0.0013-0.015841 0.0024-0.023762 0.00312-0.00792 7.679e-4 -0.016081 0.0011-0.024002 0.0012-0.00624 0-0.012481-6.24e-5 -0.018721-4.8e-4 -0.46507-0.5625-0.59684-1.3462-0.34496-2.0518 0.255-0.70964 0.85867-1.2284 1.5777-1.3556zm1.6531 0.60939c0.00624 0 0.012481 9.6e-5 0.018721 4.8e-4 0.46506 0.5624 0.59683 1.3461 0.34496 2.0517-0.255 0.70964-0.85836 1.2274-1.5774 1.3547l-3.12e-5 1.056e-4c-0.0012-5.759e-4 -0.0024-0.00115-0.0036-0.00182-0.0024-0.0013-0.0048-0.00264-0.0072-0.00408-0.0024-0.00134-0.0048-0.00264-0.0072-0.00408-0.00235-0.00144-0.0048-0.00288-0.00696-0.00432-0.0023-0.00149-0.00456-0.00312-0.00696-0.00456-0.0023-0.00158-0.00456-0.00312-0.00672-0.0048-0.00226-0.00163-0.00456-0.00336-0.00672-0.0048-0.00221-0.00168-0.00432-0.00336-0.00648-0.00504-0.00216-0.00173-0.00432-0.00336-0.00648-0.00528-0.00211-0.00178-0.00432-0.0036-0.00624-0.00552-0.00206-0.00182-0.00408-0.0036-6e-3 -0.00552-0.00202-0.00192-0.00408-0.00384-6e-3 -0.00576-0.00197-0.00192-0.00384-0.00384-0.00576-6e-3 -0.00192-0.00197-0.00384-0.00408-0.00576-6e-3 -0.00187-0.00206-0.0036-0.00408-0.00552-0.00624-0.00182-0.00211-0.0036-0.00432-0.00552-0.00648-0.00173-0.00216-0.00336-0.00432-0.00528-0.00648-0.00173-0.00216-0.00336-0.00432-0.00504-0.00648-0.00163-0.00221-0.00336-0.00456-0.0048-0.00672-0.00158-0.00226-0.00312-0.00456-0.00456-0.00696-0.00154-0.0023-0.00312-0.0048-0.00456-0.00696-0.00144-0.00235-0.00288-0.0048-0.00432-0.0072s-0.00288-0.0048-0.00408-0.0072c-0.00134-0.0024-0.00264-0.0048-0.00408-0.0072-0.0013-0.0024-0.00264-0.00504-0.00384-0.00744-0.00125-0.0024-0.0024-0.00504-0.0036-0.00744-0.00115-0.00264-0.00226-0.00504-0.00336-0.00768s-0.00221-0.00504-0.00312-0.00768c-0.00106-0.00264-0.00202-0.00504-0.00288-0.00768l-0.00288-0.00792c-9.122e-4 -0.00264-0.00178-0.00528-0.00264-0.00792-8.162e-4 -0.00264-0.00163-0.00528-0.0024-0.00792-7.68e-4 -0.00264-0.00149-0.00528-0.00216-0.00816-7.202e-4 -0.00264-0.00134-0.00528-0.00197-0.00816-0.00182-0.00792-0.00336-0.015838-0.00456-0.023755-0.00125-0.00792-0.00211-0.016076-0.00288-0.024067-6.24e-4 -0.00816-0.00101-0.016076-0.00106-0.024259-7.68e-5 -0.00816 1.73e-4 -0.016076 6.722e-4 -0.024163 5.28e-4 -0.00816 0.00134-0.016076 0.0024-0.024115 0.00115-0.00792 0.00264-0.016076 0.00432-0.023755 0.00173-0.00792 0.00384-0.015596 6e-3 -0.023515l5.04e-5 -2.879e-4 3.84e-4 -0.00115 5.04e-5 -2.879e-4 9.6e-5 -2.88e-4 4.8e-5 -2.878e-4 2.88e-4 -8.639e-4 9.61e-5 -1.919e-4 5.04e-5 -2.88e-4 2.88e-4 -8.639e-4 5.04e-5 -2.879e-4 9.6e-5 -1.92e-4 2.88e-4 -8.637e-4 4.8e-5 -2.88e-4 9.6e-5 -1.92e-4 1.92e-4 -5.759e-4 5.04e-5 -2.879e-4 1.92e-4 -5.759e-4 9.61e-5 -1.92e-4 2.88e-4 -8.638e-4 5.04e-5 -2.879e-4 9.6e-5 -2.88e-4 9.6e-5 -1.919e-4 3.84e-4 -0.00115 4.8e-5 -2.879e-4 9.6e-5 -1.92e-4 3.841e-4 -0.00115 5.04e-5 -1.92e-4 4.8e-4 -0.00144 5.04e-5 -1.92e-4 4.8e-4 -0.00144 9.6e-5 -1.92e-4 4.801e-4 -0.00144 4.8e-5 -1.92e-4 4.8e-4 -0.00144 9.6e-5 -1.919e-4 4.8e-4 -0.00144 5.04e-5 -1.92e-4 5.762e-4 -0.00173c0.00288-0.00744 6e-3 -0.014878 0.00936-0.022315 0.00336-0.0072 0.0072-0.014398 0.01104-0.021596 0.00182-0.00312 0.0036-6e-3 0.00552-0.00912 0.57732-0.079712 1.0691-0.4866 1.2734-1.0535 0.19046-0.5351 0.09515-1.1289-0.25055-1.5614-4.32e-5 -0.00149-7.68e-5 -0.00288-9.6e-5 -0.00432-5.28e-5 -0.00288-6.72e-5 -0.00552-5.04e-5 -0.0084 0-0.00288 1.056e-4 -0.00552 2.016e-4 -0.0084s2.016e-4 -0.00552 3.936e-4 -0.0084c1.922e-4 -0.00288 4.034e-4 -0.00552 5.762e-4 -0.0084 1.92e-4 -0.00288 4.608e-4 -0.00552 7.68e-4 -0.0084 2.689e-4 -0.00288 6.721e-4 -0.00552 0.00106-0.0084 3.552e-4 -0.00264 7.681e-4 -0.00552 0.00125-0.00816 4.512e-4 -0.00264 9.601e-4 -0.00552 0.00144-0.00816 5.28e-4 -0.00264 0.00106-0.00552 0.00163-0.00816 5.761e-4 -0.00264 0.0012-0.00552 0.00187-0.00816 6.241e-4 -0.00264 0.00134-0.00528 0.00202-0.00816 7.2e-4 -0.00264 0.00154-0.00528 0.0023-0.00792 8.161e-4 -0.00264 0.00163-0.00528 0.0024-0.00792 8.641e-4 -0.00264 0.00173-0.00528 0.00264-0.00792h5.04e-5v-9.58e-5l5.04e-5 -4.8e-5v-9.6e-5l4.8e-5 -5.04e-5v-9.6e-5h5.04e-5v-9.6e-5l5.04e-5 -5.04e-5v-9.6e-5l4.8e-5 -4.8e-5v-9.59e-5h5.04e-5v-1.44e-4h5.04e-5v-9.6e-5l4.8e-5 -5.04e-5v-9.6e-5h5.04e-5v-1.44e-4h5.04e-5v-9.59e-5l4.8e-5 -5.04e-5v-9.6e-5l5.04e-5 -4.8e-5v-9.6e-5h5.04e-5v-9.6e-5l4.8e-5 -5.04e-5v-9.6e-5l5.05e-5 -5.03e-5v-9.6e-5h5.04e-5v-1.44e-4h4.8e-5v-9.6e-5l5.04e-5 -5.04e-5v-9.6e-5h5.04e-5v-1.439e-4h4.8e-5v-9.6e-5l5.04e-5 -5.04e-5v-9.6e-5l5.04e-5 -4.8e-5v-9.6e-5h4.8e-5v-9.6e-5l5.04e-5 -5.04e-5v-9.58e-5l5.04e-5 -4.8e-5v-9.6e-5h4.8e-5v-1.536e-4h5.04e-5v-9.6e-5l5.04e-5 -5.04e-5v-9.6e-5h5.04e-5v-1.535e-4h4.8e-5v-9.6e-5l5.04e-5 -4.8e-5v-9.6e-5l5.04e-5 -5.04e-5v-9.6e-5h4.8e-5v-4.8e-5l5.04e-5 -9.59e-5h5.04e-5v-9.6e-5l4.8e-5 -5.04e-5v-9.6e-5l5.04e-5 -5.04e-5v-9.6e-5h5.04e-5v-1.631e-4l4.8e-5 -5.04e-5v-4.79e-5l5.04e-5 -5.04e-5v-9.6e-5h5.04e-5v-1.536e-4l4.8e-5 -4.8e-5v-5.04e-5l5.04e-5 -5.04e-5v-9.6e-5l5.05e-5 -5.03e-5v-9.6e-5h4.8e-5v-9.6e-5l5.04e-5 -4.8e-5v-9.6e-5l5.04e-5 -5.04e-5v-9.6e-5h4.8e-5v-1.438e-4l5.04e-5 -5.04e-5v-5.04e-5l5.04e-5 -4.8e-5v-9.6e-5h4.8e-5v-1.44e-4l5.04e-5 -5.04e-5v-4.8e-5l5.04e-5 -5.04e-5v-9.59e-5l4.8e-5 -5.04e-5v-9.6e-5l5.04e-5 -5.04e-5v-5.04e-5l5.04e-5 -4.8e-5v-9.6e-5l4.8e-5 -4.8e-5v-9.6e-5l5.04e-5 -5.04e-5v-9.59e-5l5.04e-5 -4.8e-5v-5.04e-5l4.8e-5 -5.04e-5v-9.6e-5h5.04e-5v-5.04e-5l5.04e-5 -9.6e-5 4.8e-5 -4.8e-5v-9.6e-5l5.04e-5 -5.03e-5v-9.6e-5h5.04e-5v-1.44e-4h4.8e-5v-9.6e-5l5.04e-5 -5.04e-5v-9.6e-5l5.04e-5 -4.8e-5v-9.59e-5h4.8e-5v-9.6e-5l5.04e-5 -5.04e-5v-9.6e-5l5.04e-5 -5.04e-5v-9.6e-5h4.8e-5v-9.6e-5l5.05e-5 -5.04e-5v-9.58e-5l5.04e-5 -5.04e-5c0.00101-0.00264 0.00202-0.00504 0.00312-0.00768 0.00106-0.00264 0.00221-0.00504 0.00336-0.00768 0.0011-0.00264 0.0023-0.00504 0.00336-0.00744 0.0012-0.0024 0.0024-0.00504 0.0036-0.00744 0.00125-0.0024 0.0024-0.00504 0.00384-0.00744 0.0013-0.0024 0.00264-0.0048 0.00408-0.0072 0.00139-0.0024 0.00288-0.0048 0.00432-0.0072 0.00144-0.00235 0.00288-0.0048 0.00432-0.00696 0.00149-0.00235 0.00312-0.00456 0.00456-0.00696 0.00158-0.0023 0.00312-0.00456 0.0048-0.00672 0.00163-0.00226 0.00336-0.00456 0.0048-0.00672 0.00168-0.00221 0.00336-0.00432 0.00504-0.00648 0.00173-0.00216 0.00336-0.00432 0.00528-0.00648 0.00178-0.00211 0.0036-0.00432 0.00552-0.00624 0.00182-0.00206 0.00384-0.00408 0.00552-6e-3 0.00192-0.00202 0.00384-0.00408 0.00576-6e-3 0.00192-0.00197 0.00384-0.00384 6e-3 -0.00576 0.00197-0.00192 0.00408-0.00384 6e-3 -0.00576 0.00206-0.00187 0.00408-0.00384 0.00624-0.00552 0.00206-0.00182 0.00408-0.0036 0.00624-0.00528 0.00624-0.00504 0.012721-0.01008 0.019201-0.014638 0.00648-0.00456 0.013201-0.00888 0.020161-0.013198 0.00696-0.00408 0.013921-0.00792 0.021121-0.01152s0.014401-0.00696 0.021842-0.01008c0.00744-0.00312 0.014881-0.00576 0.022562-0.0084 0.00768-0.0024 0.015361-0.0048 0.023042-0.00648 0.00768-0.00187 0.015601-0.00336 0.023522-0.0048 0.00792-0.0013 0.015841-0.0024 0.023762-0.00312 0.00792-7.679e-4 0.015841-0.00115 0.024002-0.00125zm-1.6782 0.28435-0.00139 0.00432c0.00384 0.00264 0.00744 0.00552 0.01104 0.0084 0.00624 0.00504 0.012241 0.01032 0.018241 0.015838 0.00576 0.00552 0.01152 0.01128 0.017041 0.017276 0.00552 6e-3 0.01056 0.012 0.015601 0.018476 0.00504 0.00624 0.00984 0.012718 0.014161 0.019436 0.00456 0.00672 0.00864 0.013438 0.012721 0.020636 0.00408 0.00696 0.00768 0.014158 0.01128 0.021356 0.00336 0.0072 0.00672 0.014638 0.0096 0.022075 0.00288 0.00744 0.00552 0.015118 0.00792 0.023035 0.00235 0.00768 0.00432 0.015596 0.00624 0.023515 0.00178 0.00792 0.00336 0.015836 0.00456 0.023755 0.0012 0.00792 0.00206 0.016076 0.00264 0.024067 5.76e-4 0.00816 9.121e-4 0.016076 9.121e-4 0.024211-1.92e-5 0.00816-3.649e-4 0.016076-0.00101 0.024211-6.241e-4 0.00816-0.00154 0.016076-0.00264 0.024115-0.0012 0.00792-0.00264 0.015836-0.00456 0.023755-0.00178 0.00792-0.00384 0.015596-0.00624 0.023515l-9.61e-5 2.88e-4 -4.8e-5 1.919e-4 -2.88e-4 8.639e-4 -5.04e-5 2.88e-4 -1.92e-4 5.759e-4 -5.04e-5 2.879e-4 -2.88e-4 8.638e-4 -4.8e-5 1.92e-4 -1.92e-4 5.759e-4 -5.04e-5 1.919e-4 -1.921e-4 5.759e-4 -9.6e-5 1.92e-4 -1.92e-4 5.759e-4 -5.04e-5 2.88e-4 -9.6e-5 1.918e-4 -1.92e-4 5.76e-4 -4.8e-5 2.879e-4 -2.88e-4 8.639e-4 -5.04e-5 1.919e-4 -1.92e-4 5.759e-4 -9.6e-5 1.92e-4 -1.921e-4 5.758e-4 -5.04e-5 2.88e-4 -9.6e-5 1.919e-4 -1.92e-4 5.76e-4 -4.8e-5 1.919e-4 -2.88e-4 8.639e-4 -9.6e-5 1.92e-4 -1.92e-4 5.759e-4 -9.6e-5 1.918e-4 -1.92e-4 5.759e-4 -5.04e-5 2.88e-4 -3.842e-4 0.00115-9.6e-5 1.92e-4 -1.92e-4 5.759e-4 -5.04e-5 1.92e-4 -2.88e-4 8.637e-4 -9.6e-5 1.92e-4 -1.92e-4 5.759e-4 -9.6e-5 1.92e-4 -4.8e-5 2.879e-4 -1.921e-4 5.759e-4 -9.6e-5 1.92e-4 -1.92e-4 5.758e-4 -9.6e-5 1.92e-4 -1.92e-4 5.759e-4 -5.04e-5 2.879e-4 -9.6e-5 1.92e-4 -1.92e-4 5.759e-4 -9.6e-5 1.92e-4 -2.881e-4 8.637e-4 -9.6e-5 1.92e-4c-0.00288 0.00744-6e-3 0.014878-0.0096 0.022075-0.00336 0.0072-0.0072 0.014398-0.01128 0.021356-0.00408 0.00696-0.0084 0.013918-0.012721 0.020396-0.00456 0.00672-0.00936 0.013198-0.014401 0.019436-0.00158 0.00192-0.00312 0.00384-0.0048 0.00576-0.20594 0.053222-0.37443 0.20919-0.44869 0.41536-0.079879 0.2244-0.036266 0.47362 0.11382 0.65044-8.64e-4 0.00696-0.00192 0.013678-0.00312 0.020396-0.00158 0.00792-0.00336 0.015836-0.00552 0.023515-0.00216 0.00768-0.00456 0.015596-0.0072 0.023035l-5.04e-5 5.04e-5v9.6e-5h-4.8e-5v9.6e-5h-5.04e-5v9.6e-5h-5.04e-5v9.59e-5l-4.8e-5 4.8e-5v5.04e-5l-5.04e-5 5.04e-5v9.6e-5h-5.04e-5v9.6e-5h-4.8e-5v1.44e-4h-5.04e-5v9.59e-5h-5.04e-5v9.6e-5h-4.8e-5v9.6e-5l-5.04e-5 4.8e-5v5.04e-5l-5.04e-5 5.04e-5v9.6e-5h-4.8e-5v9.6e-5h-5.04e-5v9.59e-5h-5.04e-5v9.6e-5l-4.8e-5 5.04e-5v9.6e-5h-5.04e-5v9.6e-5l-5.04e-5 4.8e-5v5.04e-5l-9.6e-5 1.918e-4h-4.8e-5v1.536e-4h-5.04e-5v9.6e-5h-5.04e-5v9.6e-5l-4.8e-5 5.04e-5v5.04e-5l-5.04e-5 4.8e-5v5.04e-5l-5.05e-5 5.04e-5v9.59e-5h-4.8e-5v9.6e-5h-5.04e-5v9.6e-5h-5.04e-5v9.6e-5l-4.8e-5 5.04e-5v9.6e-5h-5.04e-5v9.6e-5l-5.04e-5 4.79e-5v5.04e-5l-4.8e-5 5.04e-5v4.8e-5l-5.04e-5 5.04e-5v9.6e-5h-5.04e-5v9.6e-5h-4.8e-5v9.6e-5l-5.04e-5 5.04e-5v4.8e-5l-9.6e-5 2.879e-4 -5.04e-5 5.04e-5v9.6e-5h-6e-5v9.6e-5h-5.04e-5v9.6e-5l-5.04e-5 5.03e-5v4.8e-5l-4.8e-5 5.04e-5v5.04e-5l-5.04e-5 4.8e-5v9.6e-5l-5.04e-5 5.04e-5v5.04e-5l-4.8e-5 4.8e-5v9.6e-5h-5.04e-5v9.58e-5h-5.04e-5v9.6e-5h-4.8e-5v5.04e-5l-9.6e-5 2.88e-4v4.8e-5l-5.04e-5 5.04e-5v9.59e-5h-5.04e-5v9.6e-5h-4.82e-5v9.6e-5h-5.04e-5v9.6e-5l-5.04e-5 5.04e-5v5.04e-5l-4.8e-5 4.8e-5v5.04e-5l-5.04e-5 5.04e-5v9.59e-5h-5.04e-5v4.8e-5l-9.6e-5 2.88e-4v5.04e-5l-4.8e-5 5.04e-5v4.8e-5l-5.04e-5 5.04e-5v5.03e-5l-5.04e-5 4.8e-5v9.6e-5h-4.8e-5v9.6e-5l-5.04e-5 5.04e-5v9.6e-5h-5.04e-5v4.8e-5l-9.6e-5 2.879e-4 -4.8e-5 5.04e-5v9.6e-5l-5.04e-5 5.04e-5v5.04e-5l-5.04e-5 4.8e-5v5.04e-5l-4.8e-5 5.04e-5v9.6e-5h-5.04e-5v9.58e-5h-5.04e-5v9.6e-5l-4.8e-5 4.8e-5 -9.6e-5 1.92e-4v5.04e-5l-5.04e-5 5.04e-5v9.6e-5h-5.04e-5v9.59e-5h-4.8e-5v9.6e-5l-5.04e-5 4.8e-5 -9.61e-5 2.88e-4v5.04e-5l-5.04e-5 5.04e-5v9.59e-5h-4.8e-5v9.6e-5h-5.04e-5v9.6e-5l-5.04e-5 4.8e-5v5.04e-5l-9.6e-5 1.92e-4 -4.8e-5 4.8e-5v9.59e-5h-5.04e-5v9.6e-5h-5.04e-5v9.6e-5h-4.8e-5v9.6e-5l-5.04e-5 5.04e-5 -9.6e-5 2.879e-4v9.6e-5h-5.04e-5v9.6e-5h-4.8e-5v5.04e-5l-9.6e-5 1.92e-4v4.8e-5l-5.04e-5 5.04e-5v5.02e-5l-5.04e-5 4.8e-5v5.04e-5l-4.8e-5 5.04e-5v9.6e-5l-5.04e-5 5.04e-5v4.8e-5l-9.6e-5 2.879e-4v5.04e-5h-5.04e-5v9.6e-5l-4.8e-5 5.04e-5v4.8e-5l-9.6e-5 1.92e-4v5.04e-5h-5.05e-5v9.6e-5h-5.04e-5v9.59e-5h-4.8e-5v9.6e-5l-5.04e-5 4.8e-5v9.6e-5l-9.6e-5 2.88e-4 -5.04e-5 5.03e-5v9.6e-5h-4.8e-5v9.6e-5h-5.04e-5l-5.04e-5 2.88e-4 -4.8e-5 5.04e-5v5.04e-5l-5.04e-5 4.79e-5v5.04e-5l-9.6e-5 2.88e-4v5.04e-5h-5.04e-5v9.6e-5h-4.8e-5v9.6e-5l-9.6e-5 2.878e-4 -5.04e-5 4.8e-5v5.04e-5l-5.04e-5 5.04e-5v9.6e-5h-4.8e-5l-9.6e-5 1.919e-4v9.6e-5h-5.04e-5v9.6e-5l-5.04e-5 4.8e-5 -9.6e-5 2.88e-4v9.59e-5l-4.8e-5 5.04e-5v9.6e-5h-5.04e-5v5.04e-5l-9.61e-5 2.88e-4v9.59e-5h-5.04e-5v9.6e-5l-4.8e-5 4.8e-5 -1.92e-4 5.759e-4v9.6e-5l-5.04e-5 5.04e-5v5.04e-5l-5.04e-5 4.8e-5 -9.6e-5 2.878e-4v9.6e-5h-4.8e-5v9.6e-5h-5.04e-5l-5.04e-5 2.88e-4 -9.6e-5 2.879e-4h-4.8e-5v9.6e-5h-5.04e-5v9.6e-5l-5.04e-5 5.04e-5 -9.6e-5 2.879e-4v4.8e-5l-4.8e-5 5.04e-5v9.6e-5l-1.92e-4 5.759e-4c-0.00336 0.00744-0.00672 0.014638-0.01056 0.021835-0.00384 0.0072-0.00792 0.014158-0.012241 0.020876-0.00432 0.00672-0.00888 0.013438-0.013681 0.019916-0.0048 0.00648-0.00984 0.012718-0.015121 0.018716-0.00528 6e-3 -0.0108 0.012-0.016561 0.017516-0.00576 0.00576-0.01152 0.01104-0.017761 0.016316-6e-3 0.00528-0.012481 0.01008-0.018961 0.014878-0.00648 0.0048-0.013201 0.00912-0.019921 0.013438-0.00672 0.00432-0.013681 0.00816-0.020882 0.012-0.0072 0.0036-0.014401 0.0072-0.021841 0.01032s-0.014881 6e-3 -0.022322 0.00864c-0.00768 0.00264-0.015121 0.0048-0.023042 0.00696-0.00768 0.00202-0.015601 0.00384-0.023522 0.00528-0.00792 0.00139-0.015841 0.00264-0.023762 0.00336-0.00792 8.639e-4 -0.015841 0.00139-0.024002 0.00158-0.00792 1.92e-4 -0.016081 1.92e-4 -0.024002-1.919e-4 -0.00792-3.84e-4 -0.016081-0.00106-0.024002-0.00202-0.00792-9.599e-4 -0.015841-0.0023-0.023522-0.00384-0.23273-0.30334-0.29432-0.71295-0.16274-1.0821 0.13412-0.37286 0.44437-0.64509 0.82015-0.72447zm1.0768 0.41267c0.00792-1.919e-4 0.016081-1.919e-4 0.024002 1.92e-4 0.00792 3.838e-4 0.016081 0.0011 0.024002 0.00206 0.00792 9.597e-4 0.015841 0.00226 0.023522 0.00384 0.23272 0.30335 0.29431 0.713 0.16273 1.0822-0.12025 0.31528-0.4377 0.58988-0.82046 0.72447-0.00384-0.00264-0.00744-0.00528-0.01104-0.00816-0.00624-0.00504-0.012241-0.01032-0.018241-0.015838-0.00576-0.00552-0.01152-0.01128-0.017041-0.017036-0.00552-6e-3 -0.01056-0.012-0.015601-0.018476-0.00504-0.00624-0.00984-0.012718-0.014161-0.019436-0.00456-0.00672-0.00864-0.013678-0.012721-0.020636-0.00408-0.00696-0.00768-0.014158-0.01128-0.021356-0.00336-0.0072-0.00672-0.014638-0.0096-0.022075-0.00288-0.00744-0.00552-0.015118-0.00792-0.023035-0.00235-0.00768-0.00456-0.015596-0.00624-0.023515-0.00178-0.00792-0.00312-0.015838-0.00432-0.023755-0.0012-0.00792-0.00206-0.016076-0.00264-0.024067-5.76e-4 -0.00816-9.12e-4 -0.016076-9.12e-4 -0.024211 1.92e-5 -0.00816 3.648e-4 -0.016076 0.00101-0.024259 6.241e-4 -0.00816 0.00154-0.016076 0.00264-0.024067 0.0012-0.00792 0.00264-0.015836 0.00456-0.023755 0.00178-0.00792 0.00384-0.015596 0.00624-0.023515l9.6e-5 -2.879e-4 5.04e-5 -1.92e-4 2.88e-4 -8.639e-4 5.04e-5 -2.878e-4 1.92e-4 -5.759e-4 4.8e-5 -2.88e-4 1.92e-4 -5.759e-4 5.04e-5 -2.879e-4 9.6e-5 -1.92e-4 1.92e-4 -5.759e-4 5.05e-5 -1.92e-4 1.92e-4 -5.758e-4 9.6e-5 -1.92e-4 4.8e-5 -2.879e-4 1.92e-4 -5.759e-4 9.6e-5 -1.92e-4 1.92e-4 -5.759e-4 5.04e-5 -2.879e-4 2.88e-4 -8.638e-4 5.04e-5 -1.92e-4 1.921e-4 -5.759e-4 9.6e-5 -1.92e-4 9.6e-5 -2.879e-4 4.8e-5 -2.88e-4 9.6e-5 -2.879e-4 9.6e-5 -1.92e-4 1.92e-4 -5.759e-4 5.04e-5 -1.92e-4 2.88e-4 -8.637e-4 9.6e-5 -1.92e-4 1.92e-4 -5.759e-4 9.6e-5 -1.92e-4 5.04e-5 -2.879e-4 1.921e-4 -5.759e-4 9.6e-5 -1.92e-4 2.88e-4 -8.638e-4 9.6e-5 -1.919e-4 9.6e-5 -2.88e-4 4.8e-5 -2.879e-4 9.6e-5 -1.92e-4 2.88e-4 -8.639e-4 9.6e-5 -1.919e-4 1.921e-4 -5.76e-4 5.04e-5 -1.918e-4 2.88e-4 -8.639e-4 9.6e-5 -1.92e-4 1.92e-4 -5.759e-4 9.6e-5 -1.919e-4 5.04e-5 -2.88e-4 1.92e-4 -5.759e-4 9.6e-5 -1.92e-4 1.92e-4 -5.758e-4 9.6e-5 -1.919e-4 2.882e-4 -8.639e-4 4.8e-5 -1.92e-4c0.00288-0.00744 0.00624-0.014878 0.0096-0.022076 0.00336-0.0072 0.0072-0.014398 0.01128-0.021355 0.00408-0.00696 0.0084-0.013918 0.012721-0.020396 0.00456-0.00672 0.00936-0.013198 0.014401-0.019436 0.00158-0.00192 0.00312-0.00384 0.0048-0.00576 0.20594-0.053198 0.37448-0.20912 0.44874-0.41531 0.079879-0.22441 0.036266-0.47362-0.11382-0.65044 8.64e-4 -0.00696 0.00192-0.013678 0.00312-0.020396 0.00158-0.00792 0.00336-0.015838 0.00552-0.023515 0.00216-0.00768 0.00456-0.015358 0.0072-0.023035v-4.8e-5h5.04e-5v-9.6e-5h5.04e-5v-9.59e-5l4.8e-5 -5.04e-5v-9.6e-5h5.04e-5v-9.6e-5h5.04e-5v-9.6e-5l4.8e-5 -4.8e-5v-5.04e-5l5.04e-5 -5.04e-5v-9.58e-5h5.04e-5v-9.6e-5h4.8e-5v-9.6e-5h5.04e-5v-9.6e-5l5.04e-5 -5.04e-5v-4.8e-5l4.8e-5 -5.04e-5v-9.6e-5l5.04e-5 -5.03e-5v-4.8e-5l5.04e-5 -5.04e-5v-5.04e-5l5.04e-5 -4.8e-5v-9.6e-5h4.8e-5v-9.6e-5h5.04e-5v-9.6e-5l5.04e-5 -5.04e-5v-5.04e-5l4.8e-5 -4.79e-5v-5.04e-5l9.6e-5 -1.92e-4v-5.04e-5h5.04e-5v-9.6e-5h5.04e-5v-9.6e-5h4.81e-5v-9.6e-5l5.04e-5 -5.03e-5v-4.8e-5l5.04e-5 -5.04e-5v-9.6e-5l4.8e-5 -5.04e-5v-5.04e-5l5.04e-5 -4.8e-5v-5.04e-5l5.04e-5 -5.04e-5v-9.6e-5h4.8e-5v-9.59e-5h5.04e-5v-9.6e-5l5.04e-5 -4.8e-5v-5.04e-5l4.8e-5 -5.04e-5v-9.6e-5h5.04e-5v-9.6e-5h5.04e-5v-9.6e-5h4.8e-5v-1.438e-4h5.04e-5v-9.6e-5h5.04e-5v-9.6e-5l9.6e-5 -2.88e-4v-4.8e-5h4.8e-5v-9.59e-5l5.04e-5 -5.04e-5v-9.6e-5h5.04e-5v-9.6e-5h4.8e-5v-9.6e-5h5.04e-5v-9.6e-5l5.04e-5 -5.04e-5v-5.04e-5l4.8e-5 -4.79e-5v-9.6e-5h5.04e-5v-9.6e-5h5.04e-5v-9.6e-5h4.8e-5v-9.6e-5l5.04e-5 -5.04e-5 9.61e-5 -2.879e-4v-4.8e-5l5.04e-5 -5.04e-5v-9.6e-5h4.8e-5v-9.6e-5h5.04e-5v-1.536e-4h5.04e-5v-9.59e-5h4.8e-5v-9.6e-5h5.04e-5v-9.6e-5l5.04e-5 -5.04e-5v-4.8e-5l4.8e-5 -5.04e-5v-5.04e-5l9.6e-5 -2.878e-4v-4.8e-5h5.04e-5v-9.6e-5h5.04e-5v-9.6e-5l4.8e-5 -5.04e-5v-5.04e-5l5.04e-5 -4.8e-5v-9.6e-5h5.04e-5v-9.59e-5h4.8e-5v-5.04e-5l9.6e-5 -2.88e-4v-5.04e-5l5.04e-5 -4.8e-5v-5.04e-5l5.04e-5 -5.04e-5v-9.59e-5h4.8e-5v-9.6e-5h5.04e-5v-9.6e-5h5.04e-5v-9.6e-5l4.8e-5 -5.04e-5v-9.6e-5h5.04e-5l9.6e-5 -1.919e-4v-9.6e-5h5.04e-5v-9.6e-5l4.81e-5 -4.8e-5v-9.6e-5h5.04e-5v-9.6e-5h5.04e-5v-5.04e-5l9.6e-5 -2.879e-4v-9.6e-5h4.8e-5v-9.6e-5l5.04e-5 -5.04e-5v-4.8e-5l5.04e-5 -5.04e-5v-9.58e-5h4.8e-5v-5.04e-5l9.6e-5 -1.92e-4v-4.8e-5l5.04e-5 -5.04e-5v-5.04e-5l5.04e-5 -4.8e-5v-5.04e-5l4.8e-5 -5.04e-5v-9.59e-5h5.04e-5v-9.6e-5h5.04e-5l9.6e-5 -2.88e-4v-9.6e-5l4.8e-5 -4.8e-5v-5.04e-5l5.04e-5 -5.03e-5 9.6e-5 -1.92e-4v-9.6e-5h5.04e-5v-9.6e-5h4.8e-5v-9.6e-5l5.04e-5 -4.8e-5v-5.04e-5l5.04e-5 -5.03e-5v-4.8e-5l9.6e-5 -2.88e-4v-5.04e-5h4.8e-5v-9.6e-5h5.06e-5v-5.04e-5l9.6e-5 -1.919e-4v-4.8e-5l5.04e-5 -5.04e-5v-5.04e-5l4.8e-5 -4.8e-5v-9.6e-5h5.04e-5v-9.6e-5h5.04e-5v-9.6e-5l9.6e-5 -2.878e-4 5.04e-5 -5.04e-5v-4.8e-5l4.8e-5 -5.04e-5v-9.6e-5l9.6e-5 -2.879e-4h5.04e-5v-9.6e-5h5.04e-5v-9.6e-5l9.6e-5 -2.879e-4v-5.04e-5h4.8e-5v-9.6e-5h5.04e-5v-1.536e-4l9.6e-5 -2.88e-4 5.04e-5 -4.79e-5v-5.04e-5l4.8e-5 -5.04e-5v-9.6e-5h5.04e-5l9.6e-5 -1.92e-4v-9.6e-5l5.04e-5 -5.04e-5v-4.08e-5l4.8e-5 -4.79e-5 9.61e-5 -2.88e-4v-9.6e-5h5.04e-5v-9.6e-5h5.04e-5v-5.04e-5l9.6e-5 -2.878e-4v-4.8e-5l4.8e-5 -5.04e-5v-5.04e-5l5.04e-5 -4.8e-5 5.04e-5 -2.879e-4 9.6e-5 -2.88e-4 4.8e-5 -5.04e-5v-4.8e-5l5.04e-5 -5.04e-5v-9.6e-5h5.04e-5l9.6e-5 -2.879e-4v-9.6e-5h4.8e-5v-9.6e-5l1.92e-4 -5.759e-4 5.04e-5 -5.04e-5v-9.6e-5h5.04e-5v-9.59e-5h4.8e-5l9.6e-5 -2.88e-4v-9.6e-5h5.04e-5v-9.6e-5l1.92e-4 -5.758e-4c0.00336-0.00744 0.00672-0.014638 0.01056-0.021836 0.00384-0.0072 0.00792-0.014158 0.012241-0.020876 0.00432-0.00672 0.00888-0.013438 0.013681-0.019916 0.0048-0.00648 0.00984-0.012718 0.015121-0.018716 0.00528-6e-3 0.0108-0.012 0.016561-0.017516 0.00576-0.00576 0.01176-0.01104 0.017761-0.016316 6e-3 -0.00528 0.012481-0.01008 0.018961-0.014878 0.00648-0.0048 0.013201-0.00912 0.019921-0.013438 0.00672-0.00432 0.013681-0.00816 0.020882-0.012 0.0072-0.0036 0.014401-0.0072 0.021841-0.01032s0.014881-6e-3 0.022322-0.00864c0.00768-0.00264 0.015121-0.0048 0.023042-0.00696 0.00768-0.00202 0.015601-0.00384 0.023522-0.00504 0.00792-0.00139 0.015841-0.00264 0.023762-0.00336 0.00792-8.639e-4 0.016081-0.00139 0.024002-0.00158zm-0.7841 0.36883c0.030818-7.44e-5 0.061685 0.00456 0.091687 0.014158 0.16 0.051878 0.23457 0.23028 0.1666 0.39849-0.06795 0.16818-0.25274 0.26251-0.41274 0.21066-0.16-0.051854-0.2346-0.23021-0.16665-0.39844 0.055205-0.13668 0.1876-0.2246 0.3211-0.22493z" stroke-width="2.3999" style="paint-order:stroke fill markers"/>
</svg>
