<?xml version="1.0" encoding="utf-8"?>
<!-- Svg Vector Icons : http://www.onlinewebfonts.com/icon -->
<!DOCTYPE svg PUBLIC "-//W3C//DTD SVG 1.1//EN" "http://www.w3.org/Graphics/SVG/1.1/DTD/svg11.dtd">
<svg version="1.1" xmlns="http://www.w3.org/2000/svg" xmlns:xlink="http://www.w3.org/1999/xlink" x="0px" y="0px" viewBox="0 0 1000 1000" enable-background="new 0 0 1000 1000" xml:space="preserve">
<metadata> Svg Vector Icons : http://www.onlinewebfonts.com/icon </metadata>
<g><path d="M174.9,256.1c0,133.4,108.2,241.6,241.6,241.6s241.6-108.2,241.6-241.6S549.9,14.5,416.5,14.5S174.9,122.7,174.9,256.1L174.9,256.1z"/><path d="M404.7,713.2c0-82.8,36.9-156.9,95.2-206.8c-27.4-5.7-55.4-8.7-83.4-8.7c-53.2,0-106.4,10.6-155.6,30.9c-49.2,20.4-94.2,50.5-131.9,88.1c-37.6,37.6-67.7,82.7-88.1,131.9C20.6,797.8,10,851,10,904.2h473C434.6,855.1,404.7,787.7,404.7,713.2z"/><path d="M717.8,441c-150.3,0-272.2,121.9-272.2,272.2c0,150.3,121.9,272.2,272.2,272.2c150.3,0,272.2-121.9,272.2-272.2C990,562.9,868.1,441,717.8,441z M877.2,813.2l-54.1,54L717.8,761.8L612.4,867.2l-54.1-54l105.4-105.4L558.3,602.4l54.1-54.1l105.4,105.4l105.4-105.4l54.1,54.1L771.8,707.8L877.2,813.2z"/></g>
</svg>