<?xml version="1.0" encoding="UTF-8" standalone="no"?>
<svg
   width="9.4921579mm"
   height="6.0104084mm"
   version="1.1"
   viewBox="0 0 9.4921579 6.0104084"
   id="svg812"
   sodipodi:docname="offline4.svg"
   xmlns:inkscape="http://www.inkscape.org/namespaces/inkscape"
   xmlns:sodipodi="http://sodipodi.sourceforge.net/DTD/sodipodi-0.dtd"
   xmlns="http://www.w3.org/2000/svg"
   xmlns:svg="http://www.w3.org/2000/svg">
  <defs
     id="defs816" />
  <sodipodi:namedview
     id="namedview814"
     pagecolor="#ffffff"
     bordercolor="#000000"
     borderopacity="0.25"
     inkscape:showpageshadow="2"
     inkscape:pageopacity="0.0"
     inkscape:pagecheckerboard="0"
     inkscape:deskcolor="#d1d1d1"
     inkscape:document-units="mm"
     showgrid="false" />
  <g
     id="g1077"
     inkscape:export-filename="../projects/contact_page/apps/nextjs/public/offline.svg"
     inkscape:export-xdpi="96"
     inkscape:export-ydpi="96"
     transform="translate(-0.10857135,-0.25831736)">
    <path
       id="path810"
       style="paint-order:stroke fill markers"
       d="M 6.2123055,0.39817846 C 5.3528771,0.41219546 4.6489274,1.0515893 4.5302376,1.8781916 l 0.324528,0.324528 1.7631999,-1.76319994 c -0.1304876,-0.029118 -0.2661768,-0.04361 -0.40566,-0.0413412 z m -4.400765,0.1033529 C 1.0927321,0.62888316 0.48931619,1.1475301 0.23437579,1.8570042 c -0.2518795,0.7055986 -0.1198705,1.4895722 0.3451986,2.0520712 0.00624,4.176e-4 0.012363,5.167e-4 0.018603,5.167e-4 0.00792,-10e-5 0.015851,-7.827e-4 0.023771,-0.00155 0.00792,-7.2e-4 0.015851,-0.0018 0.023771,-0.0031 0.00792,-0.0012 0.016091,-0.00278 0.023771,-0.00465 0.00792,-0.00192 0.015574,-0.00432 0.023254,-0.00672 0.00768,-0.00264 0.014781,-0.00515 0.022221,-0.00827 0.00744,-0.00312 0.015021,-0.00622 0.022221,-0.00982 0.0072,-0.0036 0.014227,-0.00781 0.021187,-0.011886 0.00696,-0.00408 0.013674,-0.00836 0.020154,-0.012919 0.00672,-0.00456 0.01288,-0.00995 0.01912,-0.014986 0.00192,-0.00192 0.00414,-0.00335 0.0062,-0.00517 0.00216,-0.00192 0.00414,-0.00381 0.0062,-0.00568 0.00192,-0.00192 0.00423,-0.00376 0.0062,-0.00568 0.00216,-0.00192 0.00376,-0.00371 0.00568,-0.00568 0.00192,-0.00192 0.00376,-0.00418 0.00568,-0.0062 0.00192,-0.00216 0.00386,-0.00414 0.00568,-0.0062 0.00192,-0.00192 0.0039,-0.00409 0.00568,-0.0062 0.00168,-0.00216 0.00344,-0.00404 0.00517,-0.0062 0.00168,-0.00216 0.00349,-0.00451 0.00517,-0.00672 0.00168,-0.00216 0.00302,-0.00446 0.00465,-0.00672 0.00168,-0.0024 0.00307,-0.00442 0.00465,-0.00672 0.00144,-0.0024 0.00316,-0.00488 0.00465,-0.00723 0.00144,-0.0024 0.00269,-0.00437 0.00413,-0.00672 0.00144,-0.0024 0.00326,-0.00483 0.00465,-0.00723 0.00144,-0.0024 0.00283,-0.00483 0.00413,-0.00723 0.00144,-0.0024 0.00237,-0.00535 0.00362,-0.00775 l 0.00362,-0.00723 c 0.00106,-0.0024 0.00252,-0.00459 0.00362,-0.00723 0.00115,-0.0024 0.00204,-0.00511 0.0031,-0.00775 0.0011,-0.00264 0.00209,-0.00511 0.0031,-0.00775 v -5.482e-4 h 5.168e-4 v -5.168e-4 -5.168e-4 h 5.167e-4 v -5.167e-4 -5.168e-4 h 5.168e-4 V 3.699269 3.6987523 h 5.168e-4 v -5.168e-4 -5.167e-4 l 5.167e-4,-5.168e-4 v -5.168e-4 -5.167e-4 h 5.168e-4 v -5.168e-4 -5.168e-4 h 5.168e-4 v -5.167e-4 -5.168e-4 c 9.1e-4,-0.00264 0.00172,-0.00511 0.00258,-0.00775 8.2e-4,-0.00264 0.00177,-0.00511 0.00258,-0.00775 8.1e-4,-0.00264 0.00186,-0.00563 0.00258,-0.00827 7.2e-4,-0.00288 9.265e-4,-0.00511 0.00155,-0.00775 6.2e-4,-0.00264 0.00149,-0.00563 0.00207,-0.00827 5.7e-4,-0.00264 0.00102,-0.00563 0.00155,-0.00827 5.28e-4,-0.00264 0.0011,-0.00563 0.00155,-0.00827 4.34e-4,-0.00264 6.627e-4,-0.00563 0.00103,-0.00827 3.879e-4,-0.00288 7.298e-4,-0.00539 0.00103,-0.00827 3.072e-4,-0.00288 8.163e-4,-0.00539 0.00103,-0.00827 2.112e-4,-0.00288 3.631e-4,-0.00539 5.167e-4,-0.00827 1.632e-4,-0.00288 4.208e-4,-0.00591 5.168e-4,-0.00879 9.6e-5,-0.00288 -2.88e-5,-0.00539 0,-0.00827 2.16e-5,-0.00288 5.04e-5,-0.00539 0,-0.00827 -1.92e-5,-0.00144 4.08e-5,-0.00264 0,-0.00413 C 0.56982419,3.1427507 0.47438089,2.5486828 0.66484049,2.0135838 0.82576969,1.5670706 1.1652048,1.2201537 1.5841642,1.0539525 L 1.4957972,0.9655855 1.8957728,0.5650931 c -5.15e-4,-5.168e-4 -0.00103,-0.00101 -0.00155,-0.00155 -0.00192,-0.00216 -0.00423,-0.00428 -0.0062,-0.0062 -0.00192,-0.00192 -0.00366,-0.00376 -0.00568,-0.00568 -0.00216,-0.00192 -0.00414,-0.00386 -0.0062,-0.00568 -0.00216,-0.00192 -0.00409,-0.00339 -0.0062,-0.00517 -0.00216,-0.00192 -0.00456,-0.00395 -0.00672,-0.00568 -0.00216,-0.00168 -0.00399,-0.00297 -0.0062,-0.00465 -0.00216,-0.00168 -0.00446,-0.00354 -0.00672,-0.00517 -0.00216,-0.00168 -0.00442,-0.00311 -0.00672,-0.00465 -0.0024,-0.00168 -0.00493,-0.00316 -0.00723,-0.00465 -0.0024,-0.00144 -0.00437,-0.00321 -0.00672,-0.00465 -0.0024,-0.00144 -0.00484,-0.00228 -0.00724,-0.00362 -0.0024,-0.00144 -0.00483,-0.00283 -0.00723,-0.00413 -0.00107,-5.979e-4 -0.00203,-0.00154 -0.0031,-0.00207 z M 7.798772,1.379514 5.915166,3.26312 8.2137337,5.5616877 7.6458097,6.1290949 h 1.9549195 c -7e-4,-1.0690978 -1.099052,-1.9940406 -2.640149,-2.2231201 V 3.6956517 C 7.592509,3.4060523 7.9893548,2.76613 7.9677539,2.0714614 7.9600288,1.8235197 7.8996749,1.5898752 7.798772,1.379514 Z M 1.7851855,1.399151 v 5.168e-4 c -0.3757792,0.07938 -0.6859852,0.3516444 -0.82010491,0.7245036 -0.1315797,0.3691492 -0.069949,0.7787651 0.16278071,1.0821045 0.00768,0.00154 0.015851,0.00266 0.023771,0.00362 0.00792,9.6e-4 0.015851,0.00168 0.023771,0.00207 0.00792,3.839e-4 0.016368,7.088e-4 0.024288,5.168e-4 0.00816,-1.9e-4 0.015851,-6.867e-4 0.023771,-0.00155 0.00792,-7.2e-4 0.015851,-0.00223 0.023771,-0.00362 0.00792,-0.00144 0.015574,-0.00315 0.023254,-0.00517 0.00792,-0.00216 0.015574,-0.00459 0.023254,-0.00723 0.00744,-0.00264 0.014781,-0.00515 0.022221,-0.00827 0.00744,-0.00312 0.015021,-0.00674 0.022221,-0.010335 0.0072,-0.00384 0.013951,-0.00757 0.020671,-0.011886 0.00672,-0.00432 0.013157,-0.00864 0.019637,-0.013436 0.00648,-0.0048 0.01312,-0.00971 0.01912,-0.014986 0.00624,-0.00528 0.012327,-0.010777 0.018087,-0.016536 0.00576,-0.00552 0.011257,-0.01157 0.016536,-0.01757 0.00528,-0.006 0.010186,-0.012123 0.014986,-0.018603 0.0048,-0.00648 0.00912,-0.012917 0.013436,-0.019637 0.00432,-0.00672 0.00856,-0.013987 0.012402,-0.021187 0.00384,-0.0072 0.00698,-0.014264 0.010335,-0.021704 L 1.48391,3.0202459 v -5.167e-4 -5.168e-4 h 5.168e-4 v -5.168e-4 -5.167e-4 l 5.168e-4,-5.168e-4 v -5.168e-4 -5.167e-4 -5.168e-4 h 5.167e-4 V 3.015595 3.0150783 h 5.168e-4 V 3.0145615 3.0140448 3.013528 h 5.168e-4 v -5.168e-4 -5.167e-4 h 5.167e-4 v -5.168e-4 -5.168e-4 h 5.168e-4 v -5.167e-4 -5.168e-4 -5.168e-4 h 5.168e-4 v -5.219e-4 -5.168e-4 h 5.167e-4 v -5.168e-4 -5.167e-4 l 5.168e-4,-5.168e-4 v -5.167e-4 -5.168e-4 h 5.167e-4 v -5.168e-4 -5.167e-4 h 5.168e-4 V 3.0047378 3.004221 h 5.168e-4 v -5.167e-4 -5.168e-4 h 5.167e-4 V 3.0026707 3.002154 3.0016372 h 5.168e-4 v -5.168e-4 -5.167e-4 h 5.168e-4 c 0.00264,-0.00744 0.00456,-0.015058 0.00672,-0.022738 0.00216,-0.00768 0.0041,-0.015851 0.00568,-0.023771 0.0012,-0.00672 0.00224,-0.013194 0.0031,-0.020154 C 1.3576021,2.7571219 1.3141161,2.5077344 1.3939949,2.2833348 1.4682548,2.0771652 1.6366068,1.9210782 1.8425464,1.8678563 c 0.00168,-0.00192 0.00307,-0.00376 0.00465,-0.00568 0.00504,-0.00624 0.00991,-0.012917 0.014469,-0.019637 0.00432,-0.00648 0.00884,-0.013194 0.012919,-0.020154 0.00408,-0.00696 0.00801,-0.013987 0.011369,-0.021187 0.0036,-0.0072 0.00642,-0.014781 0.0093,-0.022221 l 5.168e-4,-5.167e-4 V 1.7779438 1.777427 l 5.168e-4,-5.167e-4 v -5.168e-4 -5.168e-4 h 5.167e-4 v -5.212e-4 -5.168e-4 -5.168e-4 h 5.168e-4 v -5.167e-4 -5.168e-4 l 5.168e-4,-0.00103 v -5.168e-4 -5.167e-4 l 5.167e-4,-0.00103 5.168e-4,-0.00103 v -5.168e-4 l 5.168e-4,-0.00103 v -0.00103 h 5.167e-4 v -0.00103 l 5.168e-4,-5.168e-4 v -0.00105 -5.168e-4 l 5.167e-4,-5.168e-4 V 1.762441 1.7619242 h 5.168e-4 v -5.214e-4 -5.167e-4 -5.168e-4 h 5.168e-4 v -0.00103 l 5.167e-4,-0.00103 v -0.00103 l 5.168e-4,-5.167e-4 c 0.0024,-0.00792 0.00442,-0.015334 0.0062,-0.023254 0.00192,-0.00792 0.00293,-0.015851 0.00413,-0.023771 0.0011,-0.00804 0.00248,-0.016128 0.0031,-0.024288 6.451e-4,-0.00813 0.00101,-0.016128 0.00103,-0.024288 0,-0.00813 -4.611e-4,-0.016128 -0.00103,-0.024288 -5.8e-4,-0.00799 -0.00138,-0.015851 -0.00258,-0.023771 -0.0012,-0.00792 -0.00287,-0.015851 -0.00465,-0.023771 -0.00192,-0.00792 -0.00385,-0.016091 -0.0062,-0.023771 -0.0024,-0.00792 -0.00539,-0.015298 -0.00827,-0.022738 -0.00288,-0.00744 -0.00594,-0.015021 -0.0093,-0.022221 -0.0036,-0.0072 -0.00729,-0.014227 -0.011369,-0.021187 -0.00408,-0.0072 -0.00836,-0.01395 -0.012919,-0.020671 -0.00432,-0.00672 -0.00891,-0.013397 -0.013953,-0.019637 -0.00504,-0.00648 -0.00998,-0.012087 -0.015503,-0.018087 -0.00552,-0.006 -0.011293,-0.01205 -0.017053,-0.01757 -0.006,-0.00552 -0.011847,-0.01098 -0.018087,-0.01602 -0.0036,-0.00288 -0.00753,-0.00563 -0.011369,-0.00827 z m 0.7803142,0.6361369 c -7.326e-4,0.00238 -0.00139,0.00481 -0.00207,0.00723 -0.00216,0.00768 -0.00359,0.015851 -0.00517,0.023771 -0.0012,0.00672 -0.00224,0.013194 -0.0031,0.020154 0.1500856,0.1768196 0.1935669,0.4261967 0.1136881,0.6506063 -0.07426,0.2061896 -0.2426118,0.3617638 -0.4485514,0.4149617 -0.00168,0.00192 -0.00359,0.00428 -0.00517,0.0062 -0.00504,0.00624 -0.00991,0.0124 -0.014469,0.01912 -0.00432,0.00648 -0.00832,0.013711 -0.012402,0.020671 -0.00408,0.00696 -0.00801,0.013987 -0.011369,0.021187 -0.00336,0.0072 -0.00694,0.014781 -0.00982,0.022221 v 0.00103 l -5.168e-4,5.167e-4 v 5.168e-4 5.168e-4 h -5.168e-4 v 5.167e-4 5.168e-4 l -5.167e-4,0.00103 v 5.168e-4 5.168e-4 l -5.168e-4,5.167e-4 v 5.168e-4 5.168e-4 h -5.168e-4 v 0.00103 l -5.167e-4,5.168e-4 v 5.167e-4 5.168e-4 l -5.168e-4,5.167e-4 v 5.168e-4 5.168e-4 l -5.167e-4,5.167e-4 v 5.168e-4 5.168e-4 l -5.168e-4,5.167e-4 v 5.168e-4 l -5.168e-4,0.00103 v 5.168e-4 5.168e-4 l -5.167e-4,5.167e-4 v 5.168e-4 5.167e-4 l -5.168e-4,5.168e-4 v 5.168e-4 5.167e-4 5.168e-4 l -5.168e-4,5.168e-4 v 0.00103 l -5.167e-4,5.168e-4 c -0.0024,0.00792 -0.00442,0.015851 -0.0062,0.023771 -0.00192,0.00792 -0.00345,0.015851 -0.00465,0.023771 -0.0011,0.00799 -0.00196,0.015611 -0.00258,0.023771 -6.452e-4,0.00818 -0.00101,0.016128 -0.00103,0.024288 0,0.00814 4.611e-4,0.016128 0.00103,0.024288 5.8e-4,0.00799 0.00138,0.016368 0.00258,0.024288 0.0012,0.00792 0.00287,0.015334 0.00465,0.023254 0.00168,0.00792 0.00385,0.016091 0.0062,0.023771 0.0024,0.00792 0.00487,0.015814 0.00775,0.023254 0.00288,0.00744 0.00646,0.014504 0.00982,0.021704 0.0036,0.0072 0.00677,0.014744 0.010852,0.021704 0.00408,0.00696 0.00836,0.01395 0.012919,0.020671 0.00432,0.00672 0.00891,0.01288 0.013953,0.01912 0.00504,0.00648 0.0105,0.012603 0.01602,0.018604 0.00552,0.00576 0.011293,0.011533 0.017053,0.017053 0.006,0.00552 0.011847,0.01098 0.018087,0.01602 0.0036,0.00288 0.00701,0.00511 0.010852,0.00775 C 2.6599043,3.4856356 2.9775171,3.2109799 3.0977669,2.8957005 3.128932,2.8082545 3.148965,2.7185599 3.1587451,2.6285334 Z M 2.0792244,2.1763646 c -0.1334997,3.3e-4 -0.2657058,0.088113 -0.3209106,0.2247925 -0.06795,0.1682296 0.0064,0.3465713 0.1663981,0.3984253 0.1599996,0.05185 0.3449448,-0.042143 0.4128947,-0.2103231 0.06797,-0.1682097 -0.0064,-0.3465474 -0.1663981,-0.3984253 -0.030002,-0.0096 -0.061166,-0.014544 -0.091984,-0.014469 z m 1.352889,0.7250203 c -0.010054,0.03559 -0.021596,0.070788 -0.034106,0.1059367 -0.2042996,0.566899 -0.6959885,0.9739707 -1.2733073,1.0536825 -0.00192,0.00312 -0.00386,0.00618 -0.00568,0.0093 -0.00384,0.0072 -0.00749,0.013987 -0.010852,0.021187 -0.00336,0.00744 -0.00694,0.015298 -0.00982,0.022738 l -5.167e-4,0.00155 -5.168e-4,0.00155 -5.168e-4,0.00155 v 5.167e-4 l -5.167e-4,0.00103 v 5.167e-4 l -5.168e-4,0.00103 v 5.167e-4 l -5.168e-4,0.00155 -5.167e-4,0.00103 v 5.168e-4 l -5.168e-4,0.00103 v 5.168e-4 5.168e-4 l -5.168e-4,0.00103 v 5.168e-4 l -5.167e-4,5.167e-4 v 5.168e-4 5.168e-4 l -5.168e-4,5.167e-4 v 5.168e-4 l -5.168e-4,0.00103 v 5.168e-4 0.00103 l -5.167e-4,5.168e-4 -5.168e-4,0.00103 v 5.168e-4 c -0.00216,0.00792 -0.00395,0.015334 -0.00568,0.023254 -0.00168,0.00768 -0.0035,0.015851 -0.00465,0.023771 -0.00106,0.00804 -0.00154,0.016128 -0.00207,0.024288 -4.992e-4,0.00809 -0.00111,0.016128 -0.00103,0.024288 5e-5,0.00818 9.266e-4,0.016128 0.00155,0.024288 7.7e-4,0.00799 0.00133,0.015851 0.00258,0.023771 0.0012,0.00792 0.00283,0.015851 0.00465,0.023771 6.3e-4,0.00288 0.00135,0.00563 0.00207,0.00827 6.7e-4,0.00288 0.0013,0.00563 0.00207,0.00827 7.7e-4,0.00264 0.00177,0.00511 0.00258,0.00775 8.6e-4,0.00264 0.00167,0.00563 0.00258,0.00827 l 0.00258,0.00775 c 8.6e-4,0.00264 0.00204,0.00511 0.0031,0.00775 9.1e-4,0.00264 0.002,0.00511 0.0031,0.00775 0.0011,0.00264 0.00195,0.00459 0.0031,0.00723 0.0012,0.0024 0.00237,0.00535 0.00362,0.00775 0.0012,0.0024 0.00283,0.00483 0.00413,0.00723 0.00144,0.0024 0.00279,0.00483 0.00413,0.00723 0.0012,0.0024 0.00269,0.00483 0.00413,0.00723 0.00144,0.0024 0.00269,0.00488 0.00413,0.00723 0.00144,0.00216 0.00311,0.00493 0.00465,0.00723 0.00144,0.0024 0.00307,0.00446 0.00465,0.00672 0.00144,0.00216 0.00302,0.00451 0.00465,0.00672 0.00168,0.00216 0.00344,0.00456 0.00517,0.00672 0.00192,0.00216 0.00344,0.00404 0.00517,0.0062 0.00192,0.00216 0.00335,0.00461 0.00517,0.00672 0.00192,0.00216 0.00381,0.00414 0.00569,0.0062 0.00192,0.00192 0.00376,0.00371 0.00568,0.00568 0.00192,0.00216 0.00371,0.00428 0.00568,0.0062 0.00192,0.00192 0.00418,0.00376 0.0062,0.00568 0.00192,0.00192 0.00414,0.00386 0.0062,0.00568 0.00192,0.00192 0.00409,0.00339 0.0062,0.00517 0.00216,0.00192 0.00404,0.00395 0.0062,0.00568 0.00216,0.00168 0.00451,0.00297 0.00672,0.00465 0.00216,0.00144 0.00446,0.00354 0.00672,0.00517 0.00216,0.00168 0.00442,0.00307 0.00672,0.00465 0.0024,0.00144 0.00442,0.00316 0.00672,0.00465 0.00216,0.00144 0.00488,0.00269 0.00724,0.00413 0.0024,0.00144 0.00483,0.00279 0.00723,0.00413 0.0024,0.00144 0.00483,0.00283 0.00724,0.00413 0.0012,6.7e-4 0.00242,9.747e-4 0.00362,0.00155 C 2.3919499,4.4924126 2.527972,4.4526726 2.6579969,4.3993993 L 3.786097,3.2713882 c 0.00159,-0.00378 0.00308,-0.00758 0.00465,-0.011369 z M 4.8542489,4.3240371 3.0491911,6.1290949 h 3.6106323 z" />
    <rect
       style="fill:#000000;stroke-width:0.0781317;paint-order:markers fill stroke"
       id="rect987-5"
       width="0.5"
       height="8"
       x="5.4904141"
       y="-5.1250982"
       transform="rotate(45)" />
    <rect
       style="fill:#000000;stroke-width:0.0781317;paint-order:markers fill stroke"
       id="rect987-5-5"
       width="0.5"
       height="8"
       x="0.87509817"
       y="1.7404141"
       transform="rotate(-45)" />
  </g>
</svg>
